<?xml version="1.0" encoding="iso-8859-1"?>
<!-- Generator: Adobe Illustrator 19.0.0, SVG Export Plug-In . SVG Version: 6.00 Build 0)  -->
<svg version="1.1" id="Layer_1" xmlns="http://www.w3.org/2000/svg" xmlns:xlink="http://www.w3.org/1999/xlink" x="0px" y="0px"
	 viewBox="0 0 511.999 511.999" style="enable-background:new 0 0 511.999 511.999;" xml:space="preserve">
<path style="fill:#006837;" d="M174.463,106.428c2.659,17.041-31.45,36.516-76.185,43.495s-85.815-18.219-85.815-18.219
	s18.35-18.505,31.478-28.348"/>
<path style="fill:#009245;" d="M176.671,87.74c0,17.248-36.704,31.23-81.98,31.23s-81.98-31.23-81.98-31.23
	s36.704-31.23,81.98-31.23S176.671,70.492,176.671,87.74z"/>
<path style="fill:#006837;" d="M94.691,56.51c-5.468,0-10.805,0.474-15.974,1.275c34.037,3.797,58.915,15.761,58.915,29.955
	s-24.878,26.158-58.915,29.955c5.169,0.801,10.505,1.275,15.974,1.275c45.276,0,81.98-13.983,81.98-31.23
	C176.671,70.492,139.967,56.51,94.691,56.51z"/>
<path style="fill:#F7931E;" d="M278.169,432.831c-27.296,23.368-62.749,37.483-101.499,37.483
	c-86.241,0-156.152-69.911-156.152-156.152S90.429,158.009,176.67,158.009s156.152,69.911,156.152,156.152
	c0,10.696-1.076,21.14-3.124,31.232"/>
<path style="fill:#F9A94B;" d="M176.671,158.009c-7.982,0-15.762,0.789-23.423,1.944c75.098,11.328,132.729,75.949,132.729,154.208
	c0,78.258-57.631,142.88-132.729,154.208c7.66,1.156,15.44,1.944,23.423,1.944c86.241,0,156.152-69.912,156.152-156.152
	C332.822,227.92,262.911,158.009,176.671,158.009z"/>
<g>
	<polygon style="fill:#F15A24;" points="51.749,407.852 28.326,376.621 28.326,267.316 51.749,220.469 	"/>
	<path style="fill:#F15A24;" d="M262.584,345.391h-23.452c0,73.786,59.424,132.729,132.729,132.729s132.73-58.943,132.73-132.729
		h-22.728"/>
</g>
<rect x="75.521" y="227.955" width="16.628" height="15.589"/>
<rect x="122.287" y="251.857" width="15.589" height="15.589"/>
<rect x="137.875" y="267.446" width="15.589" height="15.589"/>
<rect x="75.521" y="290.309" width="16.628" height="15.589"/>
<rect x="208.543" y="298.623" width="15.589" height="15.589"/>
<rect x="254.27" y="227.955" width="15.589" height="15.589"/>
<rect x="285.447" y="314.211" width="15.589" height="15.589"/>
<rect x="160.738" y="375.526" width="15.589" height="15.589"/>
<rect x="146.189" y="391.115" width="14.549" height="15.589"/>
<rect x="176.327" y="417.095" width="15.589" height="15.589"/>
<rect x="43.305" y="267.446" width="15.589" height="15.589"/>
<rect x="92.149" y="345.388" width="14.549" height="15.589"/>
<rect x="75.521" y="383.84" width="16.628" height="15.589"/>
<rect x="106.698" y="329.8" width="15.589" height="15.589"/>
<path style="fill:#F7931E;" d="M481.167,345.391c0,60.276-48.939,109.307-109.307,109.307s-109.307-49.031-109.307-109.307H481.167z
	"/>
<path style="fill:#F9A94B;" d="M426.514,345.391c0,50.923-34.861,93.573-81.98,105.725c8.749,2.256,17.873,3.582,27.327,3.582
	c60.368,0,109.307-49.031,109.307-109.307H426.514z"/>
<g>
	<rect x="333.252" y="417.095" style="fill:#FFFFFF;" width="15.589" height="15.589"/>
	<rect x="442.371" y="360.977" style="fill:#FFFFFF;" width="15.589" height="15.589"/>
</g>
<polygon points="176.327,220.683 160.738,220.683 160.738,236.272 176.327,236.272 176.327,227.958 191.916,227.958 
	191.916,212.369 176.327,212.369 "/>
<path d="M339.013,337.077c1.058-7.569,1.605-15.24,1.605-22.916c0-87.787-69.358-159.673-156.152-163.756V52.874l19.952-13.301
	l-8.646-12.97l-26.895,17.928v20.405c-3.825-2.408-8.317-4.609-13.443-6.562c-16.348-6.228-37.921-9.658-60.743-9.658
	c-47.596,0-85.443,31.737-87.031,33.088l-6.976,5.936l6.976,5.936c0.673,0.573,7.884,6.613,19.575,13.376
	c-10.274,9.068-19.757,18.611-20.306,19.165L0,133.203l8.388,5.145c1.555,0.953,34.097,20.601,73.702,20.599
	c5.673,0,11.497-0.404,17.39-1.323c22.549-3.518,43.335-10.232,58.528-18.906c4.129-2.357,7.755-4.826,10.868-7.374v19.062
	c-86.795,4.083-156.152,75.97-156.152,163.756c0,90.4,73.547,163.946,163.947,163.946c35.231,0,69.459-11.366,97.581-32.201
	c25.239,24.432,59.591,39.489,97.452,39.489c77.485,0,140.297-63.039,140.297-140.523v-7.794H339.013V337.077z M25.841,87.74
	c12.713-8.585,39.018-23.436,68.85-23.436c20.973,0,40.574,3.068,55.194,8.637c5.516,2.101,9.614,4.299,12.578,6.406h-31.862v15.589
	h33.436c-3.016,2.46-7.579,5.101-14.152,7.604c-14.619,5.569-34.221,8.637-55.194,8.637C64.859,111.176,38.55,96.323,25.841,87.74z
	 M150.279,125.179c-13.586,7.757-32.48,13.809-53.203,17.042c-4.992,0.779-9.943,1.121-14.804,1.121
	c-23.721-0.001-45.099-8.166-56.667-13.584c4.634-4.431,10.765-10.126,16.6-15.034c14.529,6.526,32.654,12.04,52.486,12.04
	c22.823,0,44.395-3.429,60.743-9.658c3.595-1.37,6.876-2.861,9.836-4.46C163.11,116.11,158.494,120.49,150.279,125.179z
	 M473.088,352.666c-1.614,21.914-10.044,42.309-24.221,58.708l-58.708-58.708H473.088z M378.978,363.531l58.831,58.831
	c-16.507,14.031-36.959,22.301-58.831,23.778L378.978,363.531L378.978,363.531z M353.564,352.666l-58.708,58.708
	c-14.177-16.399-22.608-36.794-24.221-58.708H353.564z M363.389,364.885v81.151c-21.36-1.721-41.31-9.934-57.476-23.675
	L363.389,364.885z M176.67,462.518c-33.422,0-64.294-11.111-89.124-29.832h11.877v-15.589H82.796v11.855
	c-25.53-20.92-43.983-50.172-51.165-83.562h11.674v-15.589H29.137c-0.541-5.141-0.824-10.359-0.824-15.642
	c0-59.817,35.588-111.473,86.699-134.924v10.268h15.589v-15.589h-2.329c12.835-4.442,26.459-7.174,40.605-7.91v16.223h-8.138v15.589
	h31.177v-15.589h-7.451v-16.223c35.649,1.854,68.003,16.357,92.662,39.087h-7.269v15.589h15.589v-7.291
	c17.575,18.958,30.27,42.498,36.066,68.606h-4.889v15.589h7.474c0.608,5.444,0.93,10.972,0.93,16.575
	c0,7.686-0.597,15.365-1.765,22.916h-91.856v7.794c0,7.966,0.672,15.776,1.948,23.383h-1.948v15.589h5.486
	c5.402,18.745,14.595,35.892,26.702,50.542C238.412,452.597,207.981,462.518,176.67,462.518z M371.861,469.807
	c-66.27,0-120.655-51.87-124.695-117.141h7.364c1.868,28.674,13.999,55.201,34.299,75.38c22.01,21.878,51.656,33.927,83.032,33.927
	s60.864-12.049,82.874-33.927c20.299-20.179,32.298-46.706,34.144-75.38h7.677C492.515,417.936,438.131,469.807,371.861,469.807z"/>
<g>
</g>
<g>
</g>
<g>
</g>
<g>
</g>
<g>
</g>
<g>
</g>
<g>
</g>
<g>
</g>
<g>
</g>
<g>
</g>
<g>
</g>
<g>
</g>
<g>
</g>
<g>
</g>
<g>
</g>
</svg>
